# Blender v2.92.0 OBJ File: 'ConeEye.blend'
# www.blender.org
mtllib ConeEye.mtl
g Cylinder
v 0.000000 0.500000 -0.500000
v 0.000000 0.236328 0.500000
v 0.097545 0.490393 -0.500000
v 0.046105 0.231787 0.500000
v 0.191342 0.461940 -0.500000
v 0.090439 0.218338 0.500000
v 0.277785 0.415735 -0.500000
v 0.131297 0.196499 0.500000
v 0.353553 0.353553 -0.500000
v 0.167109 0.167109 0.500000
v 0.415735 0.277785 -0.500000
v 0.196499 0.131297 0.500000
v 0.461940 0.191342 -0.500000
v 0.218338 0.090439 0.500000
v 0.490393 0.097545 -0.500000
v 0.231787 0.046105 0.500000
v 0.500000 0.000000 -0.500000
v 0.236328 0.000000 0.500000
v 0.490393 -0.097545 -0.500000
v 0.231787 -0.046105 0.500000
v 0.461940 -0.191342 -0.500000
v 0.218338 -0.090439 0.500000
v 0.415735 -0.277785 -0.500000
v 0.196499 -0.131296 0.500000
v 0.353553 -0.353553 -0.500000
v 0.167109 -0.167109 0.500000
v 0.277785 -0.415735 -0.500000
v 0.131297 -0.196499 0.500000
v 0.191342 -0.461940 -0.500000
v 0.090439 -0.218338 0.500000
v 0.097545 -0.490393 -0.500000
v 0.046105 -0.231787 0.500000
v -0.000000 -0.500000 -0.500000
v -0.000000 -0.236327 0.500000
v -0.097545 -0.490393 -0.500000
v -0.046105 -0.231786 0.500000
v -0.191342 -0.461940 -0.500000
v -0.090439 -0.218338 0.500000
v -0.277785 -0.415735 -0.500000
v -0.131297 -0.196499 0.500000
v -0.353554 -0.353553 -0.500000
v -0.167109 -0.167109 0.500000
v -0.415735 -0.277785 -0.500000
v -0.196499 -0.131296 0.500000
v -0.461940 -0.191341 -0.500000
v -0.218338 -0.090438 0.500000
v -0.490393 -0.097545 -0.500000
v -0.231787 -0.046105 0.500000
v -0.500000 0.000001 -0.500000
v -0.236328 0.000000 0.500000
v -0.490393 0.097546 -0.500000
v -0.231786 0.046106 0.500000
v -0.461940 0.191342 -0.500000
v -0.218338 0.090439 0.500000
v -0.415734 0.277786 -0.500000
v -0.196499 0.131297 0.500000
v -0.353553 0.353554 -0.500000
v -0.167109 0.167109 0.500000
v -0.277785 0.415735 -0.500000
v -0.131296 0.196499 0.500000
v -0.191341 0.461940 -0.500000
v -0.090438 0.218338 0.500000
v -0.097544 0.490393 -0.500000
v -0.046105 0.231787 0.500000
vt 0.113201 0.021118
vt 0.142905 0.514565
vt 0.126294 0.516036
vt 0.078057 0.024230
vt 0.111345 0.518172
vt 0.046429 0.028749
vt 0.098631 0.520890
vt 0.019531 0.034500
vt 0.970592 0.476549
vt 0.895387 0.964497
vt 0.880486 0.962047
vt 0.939066 0.471365
vt 0.863909 0.960226
vt 0.903996 0.467514
vt 0.846295 0.959105
vt 0.866730 0.465142
vt 0.828320 0.958726
vt 0.828699 0.464341
vt 0.810674 0.959105
vt 0.791366 0.465142
vt 0.794036 0.960226
vt 0.756165 0.467514
vt 0.779045 0.962047
vt 0.724449 0.471365
vt 0.766278 0.964497
vt 0.697436 0.476549
vt 0.622230 0.964497
vt 0.607329 0.962047
vt 0.665910 0.471365
vt 0.590753 0.960226
vt 0.630840 0.467514
vt 0.573139 0.959105
vt 0.593574 0.465142
vt 0.555164 0.958726
vt 0.555543 0.464341
vt 0.537518 0.959105
vt 0.518210 0.465142
vt 0.520880 0.960226
vt 0.483009 0.467514
vt 0.505889 0.962047
vt 0.451292 0.471365
vt 0.493121 0.964497
vt 0.424280 0.476549
vt 0.202162 0.946718
vt 0.271393 0.457887
vt 0.286323 0.460154
vt 0.233749 0.951515
vt 0.302920 0.461772
vt 0.268863 0.954938
vt 0.320547 0.462677
vt 0.306156 0.956854
vt 0.338525 0.462836
vt 0.344193 0.957189
vt 0.356165 0.462242
vt 0.381514 0.955932
vt 0.372788 0.460917
vt 0.416683 0.953129
vt 0.387756 0.458913
vt 0.448350 0.948890
vt 0.319524 0.034500
vt 0.240425 0.520890
vt 0.227711 0.518172
vt 0.292627 0.028749
vt 0.212762 0.516036
vt 0.260999 0.024230
vt 0.196151 0.514565
vt 0.225855 0.021118
vt 0.178517 0.513815
vt 0.188547 0.019531
vt 0.958998 0.172584
vt 0.952118 0.189195
vt 0.942129 0.204144
vt 0.929416 0.216858
vt 0.914467 0.226846
vt 0.897856 0.233727
vt 0.880222 0.237234
vt 0.862243 0.237234
vt 0.844609 0.233727
vt 0.827998 0.226846
vt 0.813049 0.216858
vt 0.800336 0.204144
vt 0.790347 0.189195
vt 0.783467 0.172584
vt 0.779959 0.154951
vt 0.779959 0.136971
vt 0.783467 0.119337
vt 0.790347 0.102727
vt 0.800336 0.087777
vt 0.813049 0.075064
vt 0.827998 0.065075
vt 0.844609 0.058195
vt 0.862243 0.054687
vt 0.880222 0.054687
vt 0.897856 0.058195
vt 0.914467 0.065075
vt 0.929416 0.075064
vt 0.942129 0.087778
vt 0.952118 0.102727
vt 0.958998 0.119337
vt 0.962506 0.136971
vt 0.962506 0.154951
vt 0.160538 0.513815
vt 0.150508 0.019531
vt 0.364940 0.315829
vt 0.350383 0.280686
vt 0.342962 0.243378
vt 0.342962 0.205339
vt 0.350383 0.168031
vt 0.364940 0.132887
vt 0.386073 0.101259
vt 0.412971 0.074361
vt 0.444599 0.053228
vt 0.479742 0.038671
vt 0.517050 0.031250
vt 0.555089 0.031250
vt 0.592397 0.038671
vt 0.627541 0.053228
vt 0.659169 0.074361
vt 0.686067 0.101259
vt 0.707200 0.132887
vt 0.721757 0.168030
vt 0.729178 0.205338
vt 0.729178 0.243377
vt 0.721757 0.280685
vt 0.707200 0.315829
vt 0.686067 0.347457
vt 0.659169 0.374355
vt 0.627541 0.395488
vt 0.592397 0.410045
vt 0.555089 0.417466
vt 0.517050 0.417466
vt 0.479742 0.410045
vt 0.444599 0.395488
vt 0.412971 0.374355
vt 0.386073 0.347457
vn 0.0948 0.9626 0.2538
vn 0.2808 0.9256 0.2538
vn 0.4560 0.8530 0.2538
vn 0.6136 0.7477 0.2538
vn 0.7477 0.6136 0.2538
vn 0.8530 0.4560 0.2538
vn 0.9256 0.2808 0.2538
vn 0.9626 0.0948 0.2538
vn 0.9626 -0.0948 0.2538
vn 0.9256 -0.2808 0.2538
vn 0.8530 -0.4560 0.2538
vn 0.7477 -0.6136 0.2538
vn 0.6136 -0.7477 0.2538
vn 0.4560 -0.8530 0.2538
vn 0.2808 -0.9256 0.2538
vn 0.0948 -0.9626 0.2538
vn -0.0948 -0.9626 0.2538
vn -0.2808 -0.9256 0.2538
vn -0.4560 -0.8530 0.2538
vn -0.6136 -0.7477 0.2538
vn -0.7477 -0.6136 0.2538
vn -0.8530 -0.4560 0.2538
vn -0.9256 -0.2808 0.2538
vn -0.9626 -0.0948 0.2538
vn -0.9626 0.0948 0.2538
vn -0.9256 0.2808 0.2538
vn -0.8530 0.4560 0.2538
vn -0.7477 0.6136 0.2538
vn -0.6136 0.7477 0.2538
vn -0.4560 0.8530 0.2538
vn -0.0000 0.0000 1.0000
vn -0.2808 0.9256 0.2538
vn -0.0948 0.9626 0.2538
vn -0.0000 0.0000 -1.0000
usemtl Material.001
s off
f 1/1/1 2/2/1 4/3/1 3/4/1
f 3/4/2 4/3/2 6/5/2 5/6/2
f 5/6/3 6/5/3 8/7/3 7/8/3
f 7/9/4 8/10/4 10/11/4 9/12/4
f 9/12/5 10/11/5 12/13/5 11/14/5
f 11/14/6 12/13/6 14/15/6 13/16/6
f 13/16/7 14/15/7 16/17/7 15/18/7
f 15/18/8 16/17/8 18/19/8 17/20/8
f 17/20/9 18/19/9 20/21/9 19/22/9
f 19/22/10 20/21/10 22/23/10 21/24/10
f 21/24/11 22/23/11 24/25/11 23/26/11
f 23/26/12 24/27/12 26/28/12 25/29/12
f 25/29/13 26/28/13 28/30/13 27/31/13
f 27/31/14 28/30/14 30/32/14 29/33/14
f 29/33/15 30/32/15 32/34/15 31/35/15
f 31/35/16 32/34/16 34/36/16 33/37/16
f 33/37/17 34/36/17 36/38/17 35/39/17
f 35/39/18 36/38/18 38/40/18 37/41/18
f 37/41/19 38/40/19 40/42/19 39/43/19
f 39/44/20 40/45/20 42/46/20 41/47/20
f 41/47/21 42/46/21 44/48/21 43/49/21
f 43/49/22 44/48/22 46/50/22 45/51/22
f 45/51/23 46/50/23 48/52/23 47/53/23
f 47/53/24 48/52/24 50/54/24 49/55/24
f 49/55/25 50/54/25 52/56/25 51/57/25
f 51/57/26 52/56/26 54/58/26 53/59/26
f 53/60/27 54/61/27 56/62/27 55/63/27
f 55/63/28 56/62/28 58/64/28 57/65/28
f 57/65/29 58/64/29 60/66/29 59/67/29
f 59/67/30 60/66/30 62/68/30 61/69/30
f 4/70/31 2/71/31 64/72/31 62/73/31 60/74/31 58/75/31 56/76/31 54/77/31 52/78/31 50/79/31 48/80/31 46/81/31 44/82/31 42/83/31 40/84/31 38/85/31 36/86/31 34/87/31 32/88/31 30/89/31 28/90/31 26/91/31 24/92/31 22/93/31 20/94/31 18/95/31 16/96/31 14/97/31 12/98/31 10/99/31 8/100/31 6/101/31
f 61/69/32 62/68/32 64/102/32 63/103/32
f 63/103/33 64/102/33 2/2/33 1/1/33
f 1/104/34 3/105/34 5/106/34 7/107/34 9/108/34 11/109/34 13/110/34 15/111/34 17/112/34 19/113/34 21/114/34 23/115/34 25/116/34 27/117/34 29/118/34 31/119/34 33/120/34 35/121/34 37/122/34 39/123/34 41/124/34 43/125/34 45/126/34 47/127/34 49/128/34 51/129/34 53/130/34 55/131/34 57/132/34 59/133/34 61/134/34 63/135/34
